<svg width="32" height="32" viewBox="0 0 32 32" fill="none" xmlns="http://www.w3.org/2000/svg">
<path d="M30 31H3C2.46957 31 1.96086 30.7893 1.58579 30.4142C1.21071 30.0391 1 29.5304 1 29V2C1 1.73478 1.10536 1.48043 1.29289 1.29289C1.48043 1.10536 1.73478 1 2 1C2.26522 1 2.51957 1.10536 2.70711 1.29289C2.89464 1.48043 3 1.73478 3 2V29H30C30.2652 29 30.5196 29.1054 30.7071 29.2929C30.8946 29.4804 31 29.7348 31 30C31 30.2652 30.8946 30.5196 30.7071 30.7071C30.5196 30.8946 30.2652 31 30 31Z" fill="#3671E9"/>
<path d="M9.75 27H7.25C6.65326 27 6.08097 26.7629 5.65901 26.341C5.23705 25.919 5 25.3467 5 24.75V15.25C5 14.6533 5.23705 14.081 5.65901 13.659C6.08097 13.2371 6.65326 13 7.25 13H9.75C10.3467 13 10.919 13.2371 11.341 13.659C11.7629 14.081 12 14.6533 12 15.25V24.75C12 25.3467 11.7629 25.919 11.341 26.341C10.919 26.7629 10.3467 27 9.75 27Z" fill="#3671E9"/>
<path d="M18.75 27H16.25C15.6533 27 15.081 26.7629 14.659 26.341C14.2371 25.919 14 25.3467 14 24.75V12.25C14 11.6533 14.2371 11.081 14.659 10.659C15.081 10.2371 15.6533 10 16.25 10H18.75C19.3467 10 19.919 10.2371 20.341 10.659C20.7629 11.081 21 11.6533 21 12.25V24.75C21 25.3467 20.7629 25.919 20.341 26.341C19.919 26.7629 19.3467 27 18.75 27Z" fill="#3671E9"/>
<path d="M27.7274 27H25.2274C24.6307 27 24.0584 26.7629 23.6364 26.341C23.2145 25.919 22.9774 25.3467 22.9774 24.75V8.25C22.9774 7.65326 23.2145 7.08097 23.6364 6.65901C24.0584 6.23705 24.6307 6 25.2274 6H27.7274C28.3242 6 28.8965 6.23705 29.3184 6.65901C29.7404 7.08097 29.9774 7.65326 29.9774 8.25V24.75C29.9774 25.3467 29.7404 25.919 29.3184 26.341C28.8965 26.7629 28.3242 27 27.7274 27Z" fill="#3671E9"/>
</svg>
