<svg width="40" height="40" viewBox="0 0 40 40" fill="none" xmlns="http://www.w3.org/2000/svg">
<path d="M25.9875 5.04531C24.4672 3.40391 22.3438 2.5 20 2.5C17.6438 2.5 15.5133 3.39844 14 5.02969C12.4703 6.67891 11.725 8.92031 11.9 11.3406C12.2469 16.1156 15.8805 20 20 20C24.1195 20 27.7469 16.1164 28.0992 11.3422C28.2766 8.94375 27.5266 6.70703 25.9875 5.04531Z" fill="#3671E9"/>
<path d="M33.7499 37.5H6.2499C5.88995 37.5047 5.53348 37.4291 5.20643 37.2786C4.87938 37.1282 4.58998 36.9068 4.35927 36.6305C3.85146 36.0234 3.64677 35.1945 3.79834 34.3562C4.45771 30.6984 6.51552 27.6258 9.7499 25.4687C12.6233 23.5539 16.2632 22.5 19.9999 22.5C23.7366 22.5 27.3765 23.5547 30.2499 25.4687C33.4843 27.625 35.5421 30.6977 36.2015 34.3555C36.353 35.1937 36.1483 36.0227 35.6405 36.6297C35.4099 36.9062 35.1205 37.1277 34.7935 37.2783C34.4664 37.4288 34.1099 37.5046 33.7499 37.5Z" fill="#3671E9"/>
</svg>
