<svg width="40" height="40" viewBox="0 0 40 40" fill="none" xmlns="http://www.w3.org/2000/svg">
<path d="M32.3743 7.6364C30.7522 5.99825 28.8224 4.69674 26.6958 3.80665C24.5692 2.91656 22.2877 2.45543 19.9823 2.44976C17.6769 2.44409 15.3931 2.89398 13.2621 3.77359C11.1312 4.6532 9.19499 5.94519 7.56484 7.57534C5.93469 9.20549 4.6427 11.1417 3.76309 13.2727C2.88348 15.4036 2.43359 17.6874 2.43926 19.9928C2.44494 22.2982 2.90606 24.5797 3.79615 26.7063C4.68624 28.8329 5.98775 30.7627 7.6259 32.3848C9.24801 34.023 11.1778 35.3245 13.3044 36.2146C15.4311 37.1047 17.7126 37.5658 20.018 37.5715C22.3233 37.5772 24.6071 37.1273 26.7381 36.2477C28.8691 35.3681 30.8052 34.0761 32.4354 32.4459C34.0655 30.8158 35.3575 28.8796 36.2371 26.7486C37.1168 24.6176 37.5667 22.3338 37.561 20.0285C37.5553 17.7231 37.0942 15.4416 36.2041 13.3149C35.314 11.1883 34.0125 9.25851 32.3743 7.6364ZM5.00012 20.0106C4.99956 18.6831 5.17558 17.3613 5.52356 16.0802C6.097 17.3145 6.92981 18.3809 7.49621 19.6473C8.22824 21.2755 10.1939 20.8239 11.0618 22.2505C11.8322 23.5169 11.0095 25.1184 11.5861 26.4434C12.0048 27.4052 12.9923 27.6153 13.6736 28.3184C14.3697 29.0278 14.3548 29.9997 14.4611 30.9247C14.581 32.0115 14.7754 33.0888 15.0431 34.1489C15.0431 34.1567 15.0431 34.1653 15.0493 34.1731C9.20325 32.12 5.00012 26.5473 5.00012 20.0106ZM20.0001 35.0106C19.1624 35.0104 18.3262 34.9403 17.5001 34.8013C17.5087 34.5895 17.5126 34.3919 17.5337 34.2544C17.7236 33.0122 18.3454 31.7973 19.1845 30.8677C20.0134 29.9505 21.1493 29.3302 21.8493 28.2895C22.5353 27.2739 22.7407 25.9067 22.4579 24.72C22.0415 22.9669 19.6595 22.3817 18.3751 21.4309C17.6368 20.8841 16.9798 20.0387 16.0103 19.97C15.5634 19.9387 15.1892 20.0348 14.7462 19.9208C14.34 19.8153 14.0212 19.5966 13.5884 19.6536C12.7798 19.7598 12.2697 20.6239 11.4009 20.5067C10.5767 20.3966 9.72746 19.4317 9.53996 18.6466C9.29934 17.6372 10.0978 17.3098 10.9532 17.22C11.3103 17.1825 11.7111 17.1419 12.054 17.2731C12.5056 17.4403 12.7189 17.8825 13.1243 18.1059C13.8845 18.5231 14.0384 17.8567 13.922 17.1817C13.7478 16.1708 13.5447 15.7591 14.4462 15.063C15.0712 14.5833 15.6056 14.2364 15.5056 13.3747C15.4462 12.8684 15.1689 12.6395 15.4275 12.1356C15.6236 11.752 16.1618 11.4059 16.5126 11.177C17.4181 10.5864 20.3915 10.6302 19.1767 8.97703C18.8197 8.49187 18.1611 7.62468 17.5361 7.50593C16.7548 7.35828 16.4079 8.23015 15.8634 8.61453C15.3009 9.01218 14.2056 9.46375 13.6423 8.8489C12.8845 8.02156 14.1447 7.75046 14.4236 7.17234C14.5525 6.90281 14.4236 6.52859 14.2064 6.17625C14.4881 6.0575 14.7746 5.94734 15.0657 5.84578C15.2482 5.98054 15.4647 6.06171 15.6907 6.08015C16.2134 6.11453 16.7064 5.83171 17.1626 6.18796C17.6689 6.57859 18.0337 7.07234 18.7056 7.19421C19.3556 7.31218 20.0439 6.93328 20.2048 6.26765C20.3025 5.86296 20.2048 5.43562 20.1111 5.01765C23.0329 5.03446 25.8855 5.90951 28.3142 7.53406C28.1579 7.47468 27.9712 7.48171 27.7407 7.58875C27.2665 7.80906 26.5947 8.37 26.5392 8.92625C26.4759 9.5575 27.4071 9.64656 27.8493 9.64656C28.5134 9.64656 29.1861 9.34968 28.972 8.5825C28.879 8.24968 28.7525 7.90359 28.5486 7.69422C29.0387 8.03434 29.5083 8.40321 29.9548 8.7989C29.9478 8.80593 29.9407 8.81218 29.9337 8.82C29.4837 9.28875 28.9611 9.65984 28.6532 10.2302C28.4361 10.6317 28.1915 10.8223 27.7517 10.9262C27.5095 10.9833 27.2329 11.0044 27.0298 11.1669C26.4642 11.6122 26.7861 12.6825 27.322 13.0036C27.9993 13.4091 29.004 13.2184 29.515 12.6395C29.9142 12.1864 30.1493 11.3997 30.8673 11.4005C31.1834 11.3998 31.487 11.5236 31.7126 11.745C32.0095 12.0528 31.9509 12.3403 32.0142 12.7247C32.1259 13.4075 32.7282 13.0372 33.0946 12.6927C33.3617 13.168 33.6027 13.6575 33.8165 14.1591C33.4134 14.7395 33.0931 15.3723 32.1236 14.6958C31.5431 14.2903 31.1861 13.702 30.4571 13.5192C29.8204 13.363 29.1681 13.5255 28.5392 13.6341C27.8243 13.7583 26.9767 13.813 26.4345 14.3544C25.9103 14.8762 25.6329 15.5747 25.0751 16.0989C23.9962 17.1145 23.5407 18.2231 24.2392 19.6591C24.9111 21.0395 26.3165 21.7887 27.8329 21.6903C29.3228 21.5911 30.8704 20.727 30.8275 22.8919C30.8118 23.6583 30.972 24.1888 31.2071 24.9005C31.4251 25.5567 31.4103 26.1927 31.4603 26.87C31.5078 27.6632 31.6318 28.4499 31.8306 29.2192C30.4303 31.0222 28.6364 32.4812 26.586 33.485C24.5357 34.4887 22.283 35.0105 20.0001 35.0106Z" fill="#3671E9"/>
</svg>
