<svg width="134" height="40" viewBox="0 0 134 40" fill="none" xmlns="http://www.w3.org/2000/svg">
<path d="M19.9999 40C31.0456 40 39.9999 31.0457 39.9999 20C39.9999 8.9543 31.0456 0 19.9999 0C8.95424 0 -6.10352e-05 8.9543 -6.10352e-05 20C-6.10352e-05 31.0457 8.95424 40 19.9999 40Z" fill="white" fill-opacity="0.1"/>
<path d="M18.8424 28.0463C14.9124 27.4707 11.8964 24.0828 11.8964 19.9891C11.8964 15.8954 14.9124 12.5075 18.8424 11.9322V7.69238C12.5855 8.29084 7.69232 13.5677 7.69232 19.9891C7.69232 26.4104 12.5855 31.687 18.8424 32.2858V28.0463Z" fill="white"/>
<path d="M26.9983 12L26.8892 12.3711V23.1393L26.9983 23.2483L31.9968 20.2937L26.9983 12Z" fill="white"/>
<path d="M26.9984 12L21.9999 20.2937L26.9984 23.2483V18.0217V12Z" fill="white"/>
<path d="M26.9986 24.8742L26.9371 24.9492V28.7851L26.9986 28.9648L32.0001 21.9211L26.9986 24.8742Z" fill="white"/>
<path d="M26.9984 28.9648V24.8742L21.9999 21.9211L26.9984 28.9648Z" fill="white"/>
<path d="M26.9984 23.2482L31.9968 20.2937L26.9984 18.0217V23.2482Z" fill="white"/>
<path d="M21.9999 20.2937L26.9983 23.2482V18.0217L21.9999 20.2937Z" fill="white"/>
<path d="M68.4964 18.3261C68.0937 15.4177 65.8565 13.7302 62.9545 13.7302C59.5348 13.7302 56.9588 16.2231 56.9588 20.4547C56.9588 24.6798 59.5028 27.1791 62.9545 27.1791C66.0675 27.1791 68.1321 25.1656 68.4964 22.6663L66.1058 22.6535C65.8054 24.1876 64.5526 25.0505 62.9865 25.0505C60.8643 25.0505 59.343 23.4589 59.343 20.4547C59.343 17.5015 60.8516 15.8588 62.9929 15.8588C64.5845 15.8588 65.831 16.7601 66.1058 18.3261H68.4964Z" fill="white"/>
<path d="M71.3881 27.0001H73.7596V22.2061H76.1758L78.7454 27.0001H81.3917L78.56 21.8098C80.1005 21.1897 80.9123 19.873 80.9123 18.096C80.9123 15.5967 79.3015 13.9092 76.2972 13.9092H71.3881V27.0001ZM73.7596 20.2373V15.8907H75.9329C77.7035 15.8907 78.4961 16.7025 78.4961 18.096C78.4961 19.4895 77.7035 20.2373 75.9457 20.2373H73.7596Z" fill="white"/>
<path d="M85.4963 27.0001L86.5765 23.7721H91.4984L92.5851 27.0001H95.1163L90.5013 13.9092H87.5737L82.965 27.0001H85.4963ZM87.2157 21.8673L88.9863 16.5939H89.0886L90.8592 21.8673H87.2157Z" fill="white"/>
<path d="M97.5606 27.0001H99.932V22.5768H102.438C105.461 22.5768 107.085 20.7615 107.085 18.243C107.085 15.7437 105.48 13.9092 102.47 13.9092H97.5606V27.0001ZM99.932 20.6272V15.8907H102.105C103.882 15.8907 104.669 16.8495 104.669 18.243C104.669 19.6365 103.882 20.6272 102.118 20.6272H99.932Z" fill="white"/>
<path d="M109.865 27.0001H112.236V22.5768H114.742C117.765 22.5768 119.389 20.7615 119.389 18.243C119.389 15.7437 117.784 13.9092 114.774 13.9092H109.865V27.0001ZM112.236 20.6272V15.8907H114.409C116.186 15.8907 116.973 16.8495 116.973 18.243C116.973 19.6365 116.186 20.6272 114.422 20.6272H112.236Z" fill="white"/>
<path d="M133.866 20.4547C133.866 16.2231 131.284 13.7302 127.851 13.7302C124.412 13.7302 121.836 16.2231 121.836 20.4547C121.836 24.6798 124.412 27.1791 127.851 27.1791C131.284 27.1791 133.866 24.6862 133.866 20.4547ZM131.482 20.4547C131.482 23.4333 129.986 25.0505 127.851 25.0505C125.723 25.0505 124.22 23.4333 124.22 20.4547C124.22 17.476 125.723 15.8588 127.851 15.8588C129.986 15.8588 131.482 17.476 131.482 20.4547Z" fill="white"/>
</svg>
